<?xml version="1.0" encoding="UTF-8"?>
<!-- Step 2 piece: rounded square with a tab out the top and a tab out the
     bottom — extracted from PUZZLE_PIECES[1] in app/page.tsx -->
<svg xmlns="http://www.w3.org/2000/svg" viewBox="1402.4 230.53 561.56 872.71">
  <defs>
    <linearGradient id="grad" x1="0" y1="0" x2="1" y2="1">
      <stop offset="0" stop-color="#0a5cff" />
      <stop offset="1" stop-color="#0b3ba7" />
    </linearGradient>
  </defs>
  <path
    fill="url(#grad)"
    d="M1483.762,386.098H1602.271C1613.825,386.098,1620.689,373.073,1614.037,363.625C1604.136,349.565,1598.416,332.348,1598.684,313.782C1599.336,268.642,1635.986,231.626,1681.119,230.553C1728.737,229.42,1767.682,267.682,1767.682,315.032C1767.682,333.128,1761.997,349.896,1752.312,363.643C1745.664,373.08,1752.55,386.098,1764.093,386.098H1882.605C1927.535,386.098,1963.959,422.521,1963.959,467.452V866.304C1963.959,911.234,1927.536,947.658,1882.605,947.658H1764.083C1752.526,947.658,1745.667,960.686,1752.321,970.136C1762.207,984.175,1767.924,1001.363,1767.674,1019.901C1767.065,1065.038,1730.46,1102.088,1685.332,1103.211C1637.682,1104.397,1598.675,1066.116,1598.675,1018.734C1598.675,1000.632,1604.364,983.862,1614.052,970.114C1620.702,960.677,1613.816,947.658,1602.272,947.658H1483.763C1438.827,947.658,1402.399,911.23,1402.399,866.294V467.462C1402.398,422.526,1438.826,386.098,1483.762,386.098Z"
  />
</svg>
