<?xml version="1.0" encoding="UTF-8"?>
<!-- Step 1 piece: rounded square with a single notch, bottom edge (before
     rotation upstream) — extracted from PUZZLE_PIECES[0] in app/page.tsx -->
<svg xmlns="http://www.w3.org/2000/svg" viewBox="1402.4 1407.91 561.56 561.56">
  <defs>
    <linearGradient id="grad" x1="0" y1="0" x2="1" y2="1">
      <stop offset="0" stop-color="#4f93ff" />
      <stop offset="1" stop-color="#0a5cff" />
    </linearGradient>
  </defs>
  <g transform="rotate(180 1683.178 1688.691)">
    <path
      fill="url(#grad)"
      d="M1483.75,1407.91L1622.5,1407.91C1631.16,1407.91,1636.31,1417.68,1631.32,1424.77C1623.9,1435.31,1619.61,1448.22,1619.81,1462.15C1620.3,1496,1647.79,1523.76,1681.63,1524.57C1717.35,1525.42,1746.56,1496.72,1746.56,1461.21C1746.56,1447.64,1742.29,1435.06,1735.03,1424.75C1730.04,1417.67,1735.21,1407.91,1743.87,1407.91L1882.61,1407.91C1927.54,1407.91,1963.96,1444.33,1963.96,1489.27L1963.96,1888.11C1963.96,1933.04,1927.53,1969.47,1882.6,1969.47L1483.76,1969.47C1438.83,1969.47,1402.4,1933.04,1402.4,1888.11L1402.4,1489.27C1402.4,1444.34,1438.82,1407.91,1483.75,1407.91Z"
    />
  </g>
</svg>
