<?xml version="1.0" encoding="UTF-8"?>
<!-- Step 2 piece: rounded square with a tab out the top and a tab out the
     bottom — extracted from PUZZLE_PIECES[1] in app/page.tsx -->
<svg xmlns="http://www.w3.org/2000/svg" viewBox="1402.4 269.42 561.56 794.92">
  <defs>
    <linearGradient id="grad" x1="0" y1="0" x2="1" y2="1">
      <stop offset="0" stop-color="#0a5cff" />
      <stop offset="1" stop-color="#0b3ba7" />
    </linearGradient>
  </defs>
  <path
    fill="url(#grad)"
    d="M1483.76,386.098L1622.5,386.098C1631.16,386.098,1636.31,376.329,1631.32,369.243C1623.9,358.698,1619.61,345.786,1619.81,331.861C1620.3,298.006,1647.79,270.244,1681.63,269.439C1717.35,268.589,1746.56,297.286,1746.56,332.798C1746.56,346.37,1742.29,358.947,1735.03,369.257C1730.04,376.334,1735.21,386.098,1743.87,386.098L1882.61,386.098C1927.54,386.098,1963.96,422.521,1963.96,467.452L1963.96,866.304C1963.96,911.234,1927.54,947.658,1882.61,947.658L1743.86,947.658C1735.19,947.658,1730.05,957.429,1735.04,964.516C1742.45,975.046,1746.74,987.937,1746.55,1001.84C1746.09,1035.69,1718.64,1063.48,1684.79,1064.32C1649.06,1065.21,1619.8,1036.5,1619.8,1000.97C1619.8,987.389,1624.07,974.811,1631.33,964.5C1636.32,957.422,1631.16,947.658,1622.5,947.658L1483.76,947.658C1438.83,947.658,1402.4,911.23,1402.4,866.294L1402.4,467.462C1402.4,422.526,1438.83,386.098,1483.76,386.098Z"
  />
</svg>
